<?xml version="1.0" encoding="UTF-8"?>
<svg width="320px" height="319px" viewBox="0 0 320 319" version="1.1" xmlns="http://www.w3.org/2000/svg" xmlns:xlink="http://www.w3.org/1999/xlink">
    <!-- Generator: Sketch 52.5 (67469) - http://www.bohemiancoding.com/sketch -->
    <title>email</title>
    <desc>Created with Sketch.</desc>
    <g id="Page-1" stroke="none" stroke-width="1" fill="none" fill-rule="evenodd">
        <g id="Forget-Password-/-Error-Copy" transform="translate(-1117.000000, -194.000000)">
            <g id="Form" transform="translate(1032.000000, 194.000000)">
                <g id="email" transform="translate(85.000000, 0.000000)">
                    <path d="M319.880159,305.532252 C319.880159,309.512878 318.547888,312.830595 315.883984,315.484134 C313.219442,317.474765 310.555538,318.801217 306.558725,318.801217 L13.4878088,318.801217 C10.1577689,318.801217 6.82709163,317.47413 4.1625498,315.484134 C1.49800797,312.82996 0.166374502,309.512878 0.166374502,305.532252 L0.166374502,111.132423 L319.880159,111.132423 L319.880159,305.532252 Z" id="Path" fill="#4355FF"></path>
                    <path d="M315.883984,315.484134 C313.219442,317.474765 310.555538,318.801217 306.558725,318.801217 L13.4878088,318.801217 C10.1577689,318.801217 6.82709163,317.47413 4.1625498,315.484134 L160.022948,182.125227 L315.883984,315.484134 Z" id="Path" fill="#3C4DEB"></path>
                    <path d="M319.880159,111.132423 L274.58741,143.642879 L168.682072,219.279852 C163.353625,223.260478 156.026773,223.260478 150.698327,219.279852 L45.4591235,143.642879 L0.166374502,111.132423 L45.4591235,78.6219666 L144.03761,8.29334119 L151.364462,2.98562823 C156.692908,-0.994997752 164.019761,-0.994997752 169.348207,2.98562823 L176.67506,8.29334119 L223.966215,42.1308844 L247.278406,58.7175668 L274.58741,78.6219666 L319.880159,111.132423 Z" id="Path" fill="#40596B"></path>
                    <path d="M274.58741,49.4292278 L274.58741,143.642879 L168.682072,219.279852 C163.353625,223.260478 156.026773,223.260478 150.698327,219.279852 L45.4591235,143.642879 L45.4591235,21.5629411 C45.4591235,14.2645976 51.4537052,8.29334119 58.7805578,8.29334119 L232.624701,8.29334119 L274.58741,49.4292278 Z" id="Path" fill="#FAFAFA"></path>
                    <path d="M233.290837,38.8138019 C233.290837,44.7850584 237.953147,49.4292278 243.947729,49.4292278 L274.586773,49.4292278 L233.290199,8.29334119 L233.290837,38.8138019 Z" id="Path" fill="#CDD6E0"></path>
                    <path d="M199.321753,141.652884 L209.978645,141.652884 C206.648606,148.951227 201.319522,154.25894 193.992669,158.239566 C185.999681,162.883735 176.008924,164.874366 164.019761,164.874366 C152.696733,164.874366 142.705339,162.883735 134.712351,158.903109 C126.719363,154.922483 120.058645,149.614136 116.06247,141.652884 C112.066295,134.35454 110.067888,125.72911 110.067888,117.104314 C110.067888,107.152432 112.066295,98.5270014 116.728606,89.901571 C121.390916,81.2761406 127.385498,75.3048841 135.378486,71.3242581 C143.371474,67.3436322 152.696096,65.3530017 162.68749,65.3530017 C171.346614,65.3530017 179.338964,67.3436322 185.999681,70.6607147 C192.660398,73.9777971 197.988845,78.6226016 201.319522,85.2574015 C204.649562,91.228658 206.647968,98.5270014 206.647968,105.825345 C206.647968,114.450775 203.983426,122.412027 198.65498,129.710371 C191.994263,138.999345 183.335139,142.979971 172.678247,142.979971 C170.013705,142.979971 167.349801,142.316427 166.01753,141.652884 C164.685259,140.325797 163.352988,138.99871 163.352988,137.008714 C159.356813,140.98934 154.693865,142.979971 149.365418,142.979971 C143.370837,142.979971 138.708526,140.98934 135.377849,137.008714 C131.381673,133.028088 129.383267,127.71974 129.383267,121.08494 C129.383267,113.123053 131.381673,105.82471 136.043984,98.5263664 C141.37243,90.5644795 148.699283,86.5838535 157.358406,86.5838535 C163.352988,86.5838535 168.015299,89.2380275 171.345976,93.882197 L172.678247,87.9109405 L186.665817,87.9109405 L178.672829,125.065566 C178.006693,127.71974 178.006693,129.046192 178.006693,129.709736 C178.006693,130.373279 178.006693,131.036823 178.672829,131.700366 C179.338964,132.36391 179.338964,132.36391 180.0051,132.36391 C181.337371,132.36391 184.001275,131.036823 186.665817,129.046827 C189.995857,126.392653 193.326534,123.075571 195.32494,118.431401 C197.323347,113.787232 198.65498,109.142427 198.65498,104.498258 C198.65498,95.8728274 195.32494,88.574484 189.329721,83.266771 C183.335139,77.2955146 174.676016,74.6413406 163.352988,74.6413406 C154.027729,74.6413406 146.035378,76.6319711 139.374661,80.6125971 C132.713944,84.5932231 128.051633,89.901571 124.720956,96.5363709 C121.390279,103.171171 120.058645,110.469514 120.058645,118.431401 C120.058645,125.729745 122.057052,132.364545 125.387092,138.335801 C129.383267,144.307058 134.046215,148.951227 140.706932,151.605401 C147.367649,154.259575 154.694502,155.586027 163.353625,155.586027 C171.346614,155.586027 178.673466,154.25894 184.668048,152.268944 C190.662629,149.614136 195.32494,146.297053 199.321753,141.652884 Z M142.705339,120.421397 C142.705339,125.065566 143.371474,127.71974 145.36988,130.373279 C147.368287,132.36391 149.366056,133.690362 152.030598,133.690362 C154.029004,133.690362 156.026773,133.026818 157.359044,132.363275 C158.691315,131.699731 160.023586,130.372644 161.355219,129.046192 C163.353625,127.055562 164.685896,123.738479 166.01753,119.757218 C167.349801,115.776592 168.015936,111.795331 168.015936,108.478249 C168.015936,104.497623 167.349801,101.843449 165.351394,99.189275 C163.352988,97.1986445 161.355219,95.8721925 158.690677,95.8721925 C156.026135,95.8721925 152.696096,97.1992795 150.697689,99.189275 C148.033147,101.179905 146.035378,104.496988 144.703108,109.141157 C143.371474,113.123053 142.705339,117.103679 142.705339,120.421397 Z" id="Shape" fill="#45E0EE" fill-rule="nonzero"></path>
                </g>
            </g>
        </g>
    </g>
</svg>