<?xml version="1.0" encoding="UTF-8"?>
<svg width="320px" height="319px" viewBox="0 0 320 319" version="1.1" xmlns="http://www.w3.org/2000/svg" xmlns:xlink="http://www.w3.org/1999/xlink">
    <!-- Generator: Sketch 52.5 (67469) - http://www.bohemiancoding.com/sketch -->
    <title>email</title>
    <desc>Created with Sketch.</desc>
    <g id="Page-1" stroke="none" stroke-width="1" fill="none" fill-rule="evenodd">
        <g id="Email-Verified" transform="translate(-1124.000000, -194.000000)">
            <g id="Form" transform="translate(1032.000000, 194.000000)">
                <g id="email" transform="translate(92.000000, 0.000000)">
                    <path d="M319.880159,305.532252 C319.880159,309.512878 318.547888,312.830595 315.883984,315.484134 C313.219442,317.474765 310.555538,318.801217 306.558725,318.801217 L13.4878088,318.801217 C10.1577689,318.801217 6.82709163,317.47413 4.1625498,315.484134 C1.49800797,312.82996 0.166374502,309.512878 0.166374502,305.532252 L0.166374502,111.132423 L319.880159,111.132423 L319.880159,305.532252 Z" id="Path" fill="#4355FF"></path>
                    <path d="M315.883984,315.484134 C313.219442,317.474765 310.555538,318.801217 306.558725,318.801217 L13.4878088,318.801217 C10.1577689,318.801217 6.82709163,317.47413 4.1625498,315.484134 L160.022948,182.125227 L315.883984,315.484134 Z" id="Path" fill="#3C4DEB"></path>
                    <path d="M319.880159,111.132423 L274.58741,143.642879 L168.682072,219.279852 C163.353625,223.260478 156.026773,223.260478 150.698327,219.279852 L45.4591235,143.642879 L0.166374502,111.132423 L45.4591235,78.6219666 L144.03761,8.29334119 L151.364462,2.98562823 C156.692908,-0.994997752 164.019761,-0.994997752 169.348207,2.98562823 L176.67506,8.29334119 L223.966215,42.1308844 L247.278406,58.7175668 L274.58741,78.6219666 L319.880159,111.132423 Z" id="Path" fill="#40596B"></path>
                    <path d="M274.58741,49.4292278 L274.58741,143.642879 L168.682072,219.279852 C163.353625,223.260478 156.026773,223.260478 150.698327,219.279852 L45.4591235,143.642879 L45.4591235,21.5629411 C45.4591235,14.2645976 51.4537052,8.29334119 58.7805578,8.29334119 L232.624701,8.29334119 L274.58741,49.4292278 Z" id="Path" fill="#FAFAFA"></path>
                    <path d="M233.290837,38.8138019 C233.290837,44.7850584 237.953147,49.4292278 243.947729,49.4292278 L274.586773,49.4292278 L233.290199,8.29334119 L233.290837,38.8138019 Z" id="Path" fill="#CDD6E0"></path>
                    <circle id="Oval" fill="#45E0EE" fill-rule="nonzero" cx="161" cy="115" r="50"></circle>
                    <g id="checked" transform="translate(121.000000, 86.000000)" fill="#FAFAFA">
                        <path d="M28.7595316,57.6747541 C27.1376112,57.6747541 25.5140047,57.0561124 24.2767213,55.8178923 L1.85742389,33.3985948 C-0.619016393,30.9221546 -0.619016393,26.9077283 1.85742389,24.4312881 C4.33386417,21.9548478 8.3482904,21.9548478 10.8247307,24.4312881 L28.7595316,42.366089 L69.11363,2.01274005 C71.5900703,-0.46295082 75.6054333,-0.463700234 78.0801874,2.01274005 C80.557377,4.48918033 80.557377,8.50454333 78.0801874,10.9800468 L33.2432787,55.8178923 C32.0050585,57.055363 30.3822014,57.6747541 28.7595316,57.6747541 Z" id="Path"></path>
                    </g>
                </g>
            </g>
        </g>
    </g>
</svg>